/* XPM */
static char *_1710a4699d14e7ba29c7d33bf32b09bxsnL9NXXAAqp5nTF[] = {
/* columns rows colors chars-per-pixel */
"64 64 173 2 ",
"   c #020201",
".  c #090704",
"X  c #0D0903",
"o  c #0B0A0A",
"O  c #130D03",
"+  c #100F0E",
"@  c #161005",
"#  c #1A1204",
"$  c #14110E",
"%  c #19140C",
"&  c #141313",
"*  c #191616",
"=  c #1D1915",
"-  c #1C1B1B",
";  c #201705",
":  c #251B06",
">  c #291F07",
",  c #281F0F",
"<  c #231D14",
"1  c #201E1E",
"2  c #2D2108",
"3  c #32240A",
"4  c #372A0E",
"5  c #3C2C0D",
"6  c #2D2313",
"7  c #23201D",
"8  c #2A241E",
"9  c #312712",
"0  c #362A13",
"q  c #3D321F",
"w  c #252424",
"e  c #282727",
"r  c #2C2926",
"t  c #2C2A2A",
"y  c #332C24",
"u  c #322E2E",
"i  c #383026",
"p  c #37302A",
"a  c #393128",
"s  c #353232",
"d  c #3A3635",
"f  c #3D3836",
"g  c #3F3A3A",
"h  c #40300E",
"j  c #443311",
"k  c #483612",
"l  c #4C3A14",
"z  c #4C3C1B",
"x  c #523E16",
"c  c #4B3F2B",
"v  c #423A35",
"b  c #413C3C",
"n  c #554117",
"m  c #584217",
"M  c #554118",
"N  c #5B461B",
"B  c #5F4A1B",
"V  c #634C1C",
"C  c #6F551F",
"Z  c #70551F",
"A  c #5C4822",
"S  c #43403F",
"D  c #4B423C",
"F  c #5A4A32",
"G  c #685126",
"H  c #705520",
"J  c #755A22",
"K  c #7A5E23",
"L  c #7E6124",
"P  c #7F6329",
"I  c #7E6333",
"U  c #454443",
"Y  c #494646",
"T  c #4C4B4B",
"R  c #514E4E",
"E  c #545353",
"W  c #5C5B5B",
"Q  c #615F5F",
"!  c #636362",
"~  c #6A6866",
"^  c #6B6A69",
"/  c #70706D",
"(  c #78746B",
")  c #747372",
"_  c #787777",
"`  c #7D7C7B",
"'  c #836526",
"]  c #886827",
"[  c #8B6A2A",
"{  c #906E2A",
"}  c #8F702D",
"|  c #94732C",
" . c #99772D",
".. c #9B782E",
"X. c #957535",
"o. c #9D7B31",
"O. c #A37E32",
"+. c #A58136",
"@. c #A98333",
"#. c #AF8837",
"$. c #A88338",
"%. c #AF893A",
"&. c #B28A36",
"*. c #B58D3B",
"=. c #B98F39",
"-. c #BC923C",
";. c #C3963C",
":. c #C79A3D",
">. c #CB9D3F",
",. c #AC8B4B",
"<. c #B18B44",
"1. c #BF9541",
"2. c #C19640",
"3. c #CC9E40",
"4. c #C99E48",
"5. c #CEA040",
"6. c #D3A442",
"7. c #D7A843",
"8. c #DCAC45",
"9. c #E0AF46",
"0. c #E0AF48",
"q. c #E1B047",
"w. c #E4B249",
"e. c #EAB64A",
"r. c #EDB84B",
"t. c #F5BE4E",
"y. c #F1BC51",
"u. c #F9C14F",
"i. c #F6C053",
"p. c #FCC551",
"a. c #FFCC53",
"s. c #FFCD58",
"d. c #858483",
"f. c #8E8C8B",
"g. c #949393",
"h. c #999795",
"j. c #9C9B9A",
"k. c #A0A09E",
"l. c #A6A5A3",
"z. c #AEADAB",
"x. c #B1AFAF",
"c. c #B3B1AF",
"v. c #B6B5B4",
"b. c #B8B6B6",
"n. c #BCBBB9",
"m. c #C0BEBA",
"M. c #C4C2C2",
"N. c #C5C3C2",
"B. c #C9C7C5",
"V. c #CAC8C7",
"C. c #CECCCB",
"Z. c #D1CCC6",
"A. c #D1CFCE",
"S. c #D3D1CF",
"D. c #D4D2D1",
"F. c #D7D5D5",
"G. c #D8D7D6",
"H. c #D9D8D5",
"J. c #DCDBDA",
"K. c #DDDDDA",
"L. c #E1E0DF",
"P. c #E5E4E3",
"I. c #E7E7E6",
"U. c #EBE7E2",
"Y. c #ECEBEA",
"T. c #F1EFEE",
"R. c #F2F0EF",
"E. c #F3F1F0",
"W. c #F6F4F3",
"Q. c #F8F6F4",
"!. c #FAF8F6",
"~. c #FCFAF9",
"^. c #FCFBFA",
/* pixels */
"R W U w & & w t e e e e e e e e e e g g b b b g g b g g g g g g g g g g g g g g g g g g g g g g g s u - * - s g g g g g g g g g ",
"E s .       o w e e e e e e e e e e w b ` Q b b U b g g g g d s g g g g g g g g g g g g g g g g u - & . . . * u g g g g g g g g ",
"s .   . & o . o e w e e e e e e e e w b v.x.T T Y b g g w .       . t g g g g g g g g g g g g d w .   . o . . & u g g g g g g g ",
"*   o W l.d.1 . * s g g g g d w w e w w ` v.l.^ t e w o       . .     t g g g u - * 1 u g g g s &   o W f.R o o e g g g g g g g ",
"o   w H.!.P.Y . & u g g s &       . - w w u e w w e -     g C.!.E.l.o   d u o         o e g g u o   s K.!.n.- . 1 f g g g g g g ",
"o   w D.Q.S.g . & u g w .   . * *     & w - & & - f     d.^.^.^.^.^.`   o     . & & .   o u g u o   t P.W.k.& . w g b g g g g g ",
"*   o W j.W & . 1 s t .   e C.I.M.d..   w .       +   ! ^.^.^.^.^.^.A.      j.J.J.z.Y o   & g s & . o W / w . o t U b g g g g g ",
"- .   o & o . & t d +   e W.^.^.^.I.)       * e     o F.^.^.^.^.^.^.E.    K.^.^.^.!.F.w . . d g w o   . .   o w g U g g g g g g ",
"w - o . . o * t d d . . n.^.^.^.^.^.J.&     M.Y.! . s !.^.^.^.^.^.^.T.. d ^.^.^.^.^.W.g o   d g u e o . . o & s S b g g g w w e ",
"e w w * & * w w g g   . L.^.^.^.^.^.^.M.  . Y.^.B.e z.!.^.^.^.^.^.^.W.g.G.^.^.^.^.^.^.d +   f g d g b - * 1 w g e e w w w w w e ",
"e e w w w w S t w w .   V.^.^.^.^.^.^.P.` ~ ^.^.E.I.^.^.^.^.^.^.^.^.^.^.^.^.^.^.^.^.^.T o . g g g b W f w e e e w w * & + & - w ",
"g g e e e e ~ t e e o   e D.T.^.^.^.^.^.^.^.^.^.^.^.^.^.^.^.^.^.^.^.^.^.^.^.^.^.^.^.K.s   & d w w w e t e e e e w &         o * ",
"g g g g g t ~ t w w w     w F.^.^.^.^.^.^.^.^.^.^.^.^.^.^.^.^.^.^.^.^.^.^.^.^.^.^.^.d.-       o w w w e e e e w & .   o & o . & ",
"g g g g g U R e w w - .   o P.^.^.^.^.^.^.^.^.^.^.^.^.^.^.^.^.^.^.^.^.^.^.^.^.^.^.^.V.E w e .     * w e e e g s * . o T z.s . o ",
"g g g g g b g g g w o   w M.^.^.^.^.^.^.^.^.^.^.^.^.^.^.^.^.^.^.^.^.^.^.^.^.^.^.^.^.^.!.Y.S.n.f   . u g g g g u & . o h.K.Y . . ",
"g g g g g g g g w -   o R.^.^.^.^.^.^.^.^.^.^.^.^.^.^.^.^.^.^.^.^.^.^.^.^.^.^.^.^.^.^.^.^.^.W.b..   & d g g g s * . . d U .   & ",
"g g g g g g g e e o   E ^.^.^.^.^.^.^.^.^.^.^.^.^.^.!.^.^.^.^.^.^.^.^.^.^.^.^.^.^.^.J.J.^.^.!.z.+   o w g g g g e o         . w ",
"g g g g g g g e e o   ~ ^.^.^.^.^.^.^.^.^.^.^.^.^.^.^.^.^.^.^.^.^.^.^.^.Y._ T W.^.I.f - R.T.K.) .   o w e g g g d w + . . & e d ",
"g g g g g g g e e &   * W.^.^.!.^.^.^.^.^.^.^.^.T.W.^.^.g.W P.^.^.^.^.^.j.o   W !.P..   d Y d o   . * w e e g g g d u e t s f g ",
"g g g g g g g e e w .   - j.j.! Y z.!.^.^.^.^.V.w Y v.I.o   E ^.^.^.^.^.^     o n.I.            . & w e e e e g g g g g g g g g ",
"g g g g g g g e e e u o           s J.^.^.^.^.)     _ L.    o V.^.^.^.K.f   o . + &   .       . 1 d e e e e e g g g g g g g g g ",
"g g g g g d s - 1 w w w * o       . W L.E.!.!.e     - ~       7 Z.Q.U.( .   G 9 X . &       . * w u u * - 7 w w g g g g g g g g ",
"g g g e w & o o o & 1 w e -         o ^ n.m.~             A       q <     O 0.w.| X.,.                    O 6 q y f g g g g g g ",
"e e e w & .       . o - w w           . < .     z I     C r.O.#         X ' a.a.a.s.*.                        . , y f g g g g g ",
"e e w 1 o   . o o   . * s d o     9           V y.a.p.p.6.t.a.8. .l 5 [ V   a.a.a.a.O..     4 C L ' K K H V 5 #   . y g g g g g ",
"e e w &   . R j.h.b o o e d o     4.} x l     p.p.a.a.a.#  .a.p.p.a.a.a.l   a.a.a.a.@.X   O -.r.t.e.t.u.p.u.e.-.j   . p g g g g ",
"g g s * o w n.W.Q.c.* . 1 d o     p.a.a.a.    a.a.a.a.a.  5 a.a.a.a.a.a.2   a.a.a.a.@..   . n j k k m ] >.i.a.a.&.X   < v g g g ",
"g g u & o e M.!.!.x.* . 1 s o     t.a.a.a.    a.a.a.a.a.  O a.a.a.a.a.a.#   a.a.a.a.o.                . 5 @.t.a.6.j   @ c t e e ",
"g g s * o & _ H.B.U o o e d o     t.a.a.a.    a.a.a.a.a.    a.a.a.a.a.a..   a.a.a.p.[       O O @ O       3 O.t.q.V   X a e e e ",
"g g d w o + * p w o . * s d .     i.a.a.a.    a.a.a.a.a.    a.a.a.a.a.a.    a.a.a.a.@.      F F F c 6     X j ;.r.J   . r e e e ",
"g g g s - o o o . . * u g d .     i.a.a.a.    a.a.a.a.a.    a.a.a.a.a.p.    a.a.a.a.*..   . w e e e w &     >  .e.]   . y g g g ",
"g g g g s w & & & w s g g s       i.a.a.a.    a.a.a.a.a.    a.a.a.a.a.a.    a.a.a.a.:..   . w e e e w -     O K 8.[   . v g g g ",
"g g g g g d u u s f g g g w       p.a.a.a.    a.a.a.a.a.    a.a.a.a.p.a.    a.a.a.a.3..   o w e e e e w o     V 8.|   . v g g g ",
"g g g g g g e e e e e e e w       i.a.a.a.    a.a.a.a.a.    a.a.a.a.p.a.    a.a.a.a.7.    o w e g g g w $     N 9. .    v g g g ",
"g e e e e e e e e e e e e w       t.a.a.a.    a.a.a.a.a.    a.a.a.a.a.a.    a.a.a.a.8.    & f g g g g d &     n w. .    f g g g ",
"e e e e e e e e e e e e e w .     i.a.a.a.    a.a.a.a.a.    a.a.a.p.a.a.    a.a.a.a.w.    & d g g g g d =     l w.|     f g g g ",
"e e e e e e e e e g g g g d &     i.a.a.a.    a.a.a.a.a.    a.a.a.a.a.a.    a.a.a.a.7.    & d g g g g f <     k r.[     d g g g ",
"e e e e g g g g g g g g g d *     u.a.a.a.    a.a.a.a.a.    a.a.p.a.a.a.    a.a.a.a.8.    & d g g g g g 8     l r.]     d g g g ",
"g g g g g g g g g g g g g f *     p.a.a.a.    a.a.a.a.a.    a.a.a.a.a.a.    a.a.a.a.8.    + f g g g g g 7     l w.J     f g g g ",
"g g g g g g g g g g g g g f *     u.a.a.a.    a.a.a.a.a.    a.a.a.a.a.a.    a.a.a.a.7.    + f g g g g b %     n 9.V     f g g g ",
"g g g g g g g g g g g g g f *     p.a.a.a.    a.a.a.a.a.    a.p.a.a.a.a.    a.a.a.a.q.    + d g g g g D       V 7.l   . f g g g ",
"g g g g g g g g g g g g g f *     t.a.a.a.    a.a.a.a.a.    a.a.a.a.a.a.    a.a.a.a.7.    o f g g g f 8       ] 7.3   O f g g g ",
"g g g g g g g g g g g g g d &     p.a.a.a.    a.a.a.a.a.    p.a.a.a.a.a.    a.a.a.a.7.X   o f g s t - O     : -.6.#   % f g g g ",
"g g g g g g g g g g g g g d o     i.a.a.a.    a.a.a.a.a.    p.a.a.a.a.a.    a.a.a.a.6.      + o .         O V q.:.#   = f g g g ",
"g g g g g g g g g g g g e w       t.a.a.a.    a.a.a.a.a.    a.a.a.a.a.a.    a.a.a.a.-.                X > 4 O.t.*.X   1 f g g g ",
"g g g g g g g g g e e e e w       i.a.a.a.    a.a.a.a.a.    a.a.a.a.a.a..   a.a.a.a.6.X     . X X # : 4 x | 9.i.[     w g g g g ",
"e e e e g g g e e e e e e w       t.a.a.a.    a.a.a.a.a.    a.a.a.a.a.a.X   a.a.a.a.8.O     ' |  .@.&.-.>.8.q. .#   * s g g g g ",
"e e e e e e g e e e e e e w       p.a.a.a.    a.a.a.a.a.  # a.a.a.a.a.a.;   a.a.a.a.7.O     ' #.*.=.&.@. .V 2 .   $ u g g g g g ",
"e e e e e e e e e e e e g d       t.a.a.a.O   a.a.a.a.a.  2 a.a.a.a.a.a.h   a.a.a.a.5.X             .           . t g g g g g g ",
"g e e e e e e e e e e g g d .     i.a.a.a.L V a.a.a.a.a.  n a.a.a.a.a.a.Z ; a.a.a.a.>..     .   . .   O # % $ * w w e g g g g g ",
"g g g e e e e e e e e e g d .     i.a.a.a.a.p.a.a.a.a.a.. L a.a.a.a.a.a.:...a.a.a.a.7.O     w w e t u f i e w e e e e e e g g g ",
"g g g g g e e e e e e e e w o     <.i.a.a.a.a.a.a.a.a.a.{ 9.a.a.a.a.a.a.p.i.a.a.a.a.>.O   . s g g g b g b b e e e e e e e e e g ",
"g g g g g g g g e e e e e w o     6 %.i.a.a.a.a.a.a.a.a.a.a.a.a.a.a.a.a.a.a.a.a.a.u.J     o d g g g g g g b e e e e e e e e e e ",
"g g g g g g g g e e e e e w - o     6 +.q.i.a.a.a.a.a.a.a.a.a.a.a.a.a.a.a.a.a.a.e.[       e g g g g g g e e e e e e e e e e e e ",
"g g g g g g e e e e e e e e w 1 + .   . A $.3.q.i.a.a.a.a.a.a.a.a.a.a.a.a.p.e.-.M     . w f g g g g e e e e e e e e g g e e e e ",
"g g g g g e e e e e e e e e e w w * +     X 0 N P o.%.-.2.1.-.*.*.*.*.*.#.| B #       - d g g g g g e e e e e e e g g g g g e e ",
"g g g e e e e e e e e g g e e e e w w &           . O @ @ @ @ X X . .               & w g g g g g e e e e e e g g g g g g g g e ",
"g g e e e e e e e g g g g g e e e e e w - o .                               . . . & w e g g g g e e e e e g g g g g g g g g g g ",
"g g e e e e e e g g g g g g g e e e e e e w w - e w 1 - - - - - - - 1 w w e t t w w e e g g g e e e e e e g g g g g g g g g g g ",
"g e e e e e g g g g g g g g g e e e e e g g g g g g d d d s s s s s d d f g g g g e e e g g g e e e e e g g g g g g g g g g g g ",
"g e e e e g g g g g g g g g g g e e e e e g g g g g g g g g g g g g g g g g g g g e e e g g e e e e e g g g g g g g g g g g g g ",
"e e e e e g g g g g g g g g g g g e e e e g g g g g g g g g g g g g g g g g g g g e e e g g e e e e g g g g g g g g g g g g g g ",
"e e e e g g g g g g g g g g g g g e e e e e g g g g g g g g g g g g g g g g g g g e e e g g e e e e g g g g g g g g g g g g g g ",
"e e e e g g g g g g g g g g g g g g e e e e e g g g g g g g g g g g g g g g g g g e e e g e e e e g g g g g g g g g g g g g g g "
};
