/* XPM */
static char *d1435279e60c46facb7b9cd17bbcd08b53yP4B0a5SJWN19L[] = {
/* columns rows colors chars-per-pixel */
"64 64 172 2 ",
"   c #020201",
".  c #090603",
"X  c #0D0903",
"o  c #0B0B0A",
"O  c #130D03",
"+  c #110F0E",
"@  c #161005",
"#  c #1A1204",
"$  c #14110E",
"%  c #19140C",
"&  c #141313",
"*  c #191615",
"=  c #1F1A14",
"-  c #1C1B1B",
";  c #201705",
":  c #251B06",
">  c #291F07",
",  c #281F0F",
"<  c #231D14",
"1  c #211F1E",
"2  c #2D2108",
"3  c #32240A",
"4  c #372A0E",
"5  c #3C2C0D",
"6  c #2D2313",
"7  c #22201E",
"8  c #2A241E",
"9  c #312712",
"0  c #362A13",
"q  c #3D321F",
"w  c #252423",
"e  c #282727",
"r  c #2C2926",
"t  c #2C2A2A",
"y  c #332C24",
"u  c #322D2D",
"i  c #383026",
"p  c #37302A",
"a  c #393128",
"s  c #353333",
"d  c #3B3635",
"f  c #3E3836",
"g  c #3F3A3A",
"h  c #40300E",
"j  c #443311",
"k  c #483612",
"l  c #4C3A14",
"z  c #4C3C1B",
"x  c #523E16",
"c  c #4B3F2B",
"v  c #423A35",
"b  c #403D3D",
"n  c #554117",
"m  c #584217",
"M  c #554118",
"N  c #5B461B",
"B  c #5F4A1B",
"V  c #634C1C",
"C  c #6F551F",
"Z  c #70551F",
"A  c #584521",
"S  c #5F4B22",
"D  c #4B423C",
"F  c #5A4A32",
"G  c #685126",
"H  c #705520",
"J  c #755A22",
"K  c #7A5E23",
"L  c #7E6124",
"P  c #7F6329",
"I  c #7E6333",
"U  c #454444",
"Y  c #494747",
"T  c #4C4C4C",
"R  c #535353",
"E  c #5B5B5A",
"W  c #636262",
"Q  c #6A6865",
"!  c #6B6A68",
"~  c #78746B",
"^  c #737271",
"/  c #787777",
"(  c #7D7C7C",
")  c #836526",
"_  c #886827",
"`  c #8B6A2A",
"'  c #906E2A",
"]  c #8F702D",
"[  c #94732C",
"{  c #99772D",
"}  c #9B782E",
"|  c #947330",
" . c #9D7B31",
".. c #96773A",
"X. c #A37E32",
"o. c #A78132",
"O. c #A98333",
"+. c #AF8837",
"@. c #A38039",
"#. c #A88338",
"$. c #AF893A",
"%. c #B28A36",
"&. c #B58D3B",
"*. c #B98F39",
"=. c #BC923C",
"-. c #C3963C",
";. c #C79A3D",
":. c #CB9D3F",
">. c #AC8B4B",
",. c #B18B44",
"<. c #BF9541",
"1. c #C19640",
"2. c #CC9E40",
"3. c #C99E48",
"4. c #CEA040",
"5. c #D3A442",
"6. c #D7A843",
"7. c #DCAC45",
"8. c #E0AF46",
"9. c #E0AF48",
"0. c #E1B047",
"q. c #E4B249",
"w. c #EAB64A",
"e. c #EDB84B",
"r. c #F5BE4E",
"t. c #F1BC51",
"y. c #F9C14F",
"u. c #F6C053",
"i. c #FCC551",
"p. c #FFCC53",
"a. c #FFCD58",
"s. c #858483",
"d. c #949392",
"f. c #9C9A9A",
"g. c #A7A6A4",
"h. c #ADACAB",
"j. c #B6B6B5",
"k. c #B8B6B6",
"l. c #BBBAB9",
"z. c #C0BEBA",
"x. c #C4C2C2",
"c. c #C6C4C4",
"v. c #C9C7C6",
"b. c #CAC8C7",
"n. c #CBC9C8",
"m. c #CECCCB",
"M. c #D1CCC6",
"N. c #D1CFCE",
"B. c #D2D0CF",
"V. c #D3D1D0",
"C. c #D7D5D5",
"Z. c #D8D7D6",
"A. c #DADAD9",
"S. c #DDDCDB",
"D. c #DFDEDD",
"F. c #E1E0DF",
"G. c #E2E1E0",
"H. c #E4E3E2",
"J. c #E7E6E6",
"K. c #EBE7E2",
"L. c #EAE9E8",
"P. c #EDECEB",
"I. c #F1EFEE",
"U. c #F2F0EF",
"Y. c #F3F1F0",
"T. c #F4F3F2",
"R. c #F6F4F3",
"E. c #F7F5F4",
"W. c #F9F5F1",
"Q. c #F9F7F6",
"!. c #FAF8F7",
"~. c #FCFBFA",
/* pixels */
"g e w w w w w e e e e e e e e e e e g g g g g g g g g g g g g g g g g g g g g g g g g g g g g g g g g e e e g g g g g g g g g g ",
"g d u 1 & & - w e e e e e e e e e e e e e e g g b b g g g g d s g g g g g g g g g g g g g g g g g g g e e e g g g g g g g g g g ",
"d w o   . . o e f e e e e e e e e e e e w e w e t g g g w .       . t g g g g g g g g g g g g g g g e e e e g g g g g g g g g g ",
"t o           o t g g g g g d w w e e e w w w e e e w o       . .     t g g g u - * 1 u g g g g g g e e e e g g g g g g g g g g ",
"-     & U w     - d g g s &       . - w w w e e e t &     g m.!.Y.g.o   d u o         o e g g g g g w w w w g g g g g g g g g g ",
"+   o f.P.d.o   & s g w .   . - -     & t w - & - d     s.~.~.~.~.~.(   o     . & & .   o u g g g s & o o - e s g g g g g g g g ",
"o   7 n.L.s.o   & s t .   t m.J.c.s..   t .       +   W ~.~.~.~.~.~.N.      f.S.A.h.Y o   & g g d 1 .   . . o 1 d g g g g g g g ",
"o   . R ^ t     - d +   t T.~.~.~.J.^       * t     o C.~.~.~.~.~.~.Y.    D.~.~.~.Q.C.w . . d g u +   o d w o + t g g g g g g g ",
"&     . o .   o t d . . l.~.~.~.~.~.A.&     x.P.W . s Q.~.~.~.~.~.~.I.. d ~.~.~.~.~.T.g o   d g t o . b h.^ o o t g g g g e e e ",
"w +         . & d f   . F.~.~.~.~.~.~.x.  . P.~.v.t h.!.~.~.~.~.~.~.E.d.Z.~.~.~.~.~.~.d +   f g u o . w ^ g o & - w e e e e e e ",
"e w & o o o * w e w .   b.~.~.~.~.~.~.G.( Q ~.~.Y.L.~.~.~.~.~.~.~.~.~.~.~.~.~.~.~.~.~.T o . g g d -   . o o . & w e e e e e e e ",
"g g w w 1 w w e e e o   t V.I.~.~.~.~.~.~.~.~.~.~.~.~.~.~.~.~.~.~.~.~.~.~.~.~.~.~.~.S.s   & d w w - o . . o & w w e e e e e e e ",
"g g g g g e e e w w w     w C.~.~.~.~.~.~.~.~.~.~.~.~.~.~.~.~.~.~.~.~.~.~.~.~.~.~.~.s.-       o w w 1 - - - w w e e e g g g g g ",
"g g g g g g g e w w - .   o G.~.~.~.~.~.~.~.~.~.~.~.~.~.~.~.~.~.~.~.~.~.~.~.~.~.~.~.b.R w t .     - w w w w g g g g g g g g g g ",
"g g g g g g g g g w o   w x.~.~.~.~.~.~.~.~.~.~.~.~.~.~.~.~.~.~.~.~.~.~.~.~.~.~.~.~.~.!.P.B.l.g   . t g g g g g g g g g g g g g ",
"g g g g g g g g e &   o U.~.~.~.~.~.~.~.~.~.~.~.~.~.~.~.~.~.~.~.~.~.~.~.~.~.~.~.~.~.~.~.~.~.R.k..   & d g g g g g g g g g g g g ",
"g g g g g g g e e o   R ~.~.~.~.~.~.~.~.~.~.~.~.~.~.Q.~.~.~.~.~.~.~.~.~.~.~.~.~.~.~.A.A.~.~.Q.h.+   o w g g g g g g g g g g g g ",
"g g g g g g g e e o   Q ~.~.~.~.~.~.~.~.~.~.~.~.~.~.~.~.~.~.~.~.~.~.~.~.P./ T R.~.L.g - U.I.D.^ .   o w e g g g g g g g g g g g ",
"g g g g g g g e e &   - R.~.~.!.~.~.~.~.~.~.~.~.I.E.~.~.d.E H.~.~.~.~.~.f.o   E !.H..   d U d o   . - w e e g g g g g g g g g g ",
"g g g g g g g e e w .   - f.f.W Y h.!.~.~.~.~.b.w U j.J.o   R ~.~.~.~.~.!     o l.J.            . & w e e e e g g g g g g g g g ",
"g g g g g g b e w e u o           s A.~.~.~.~.^     / F.    o b.~.~.~.D.d   o . + &   .       . 1 d e e e e e g g g g g g g g g ",
"g g g g g g g e w e e w - o       . E F.T.!.!.t     - Q       7 M.W.K.~ .   G 9 X . *       . * w u u - - 7 w w g g g g g g g g ",
"g g g e e e e e w w e e e -         o ! l.z.Q             A       q <     O 9.q.| ..>.                    O 6 q y f g g g g g g ",
"e e e e e e w - & & 1 w e w           . < .     z I     C e.X.#         X ) p.p.p.a.&.                        . , y f g g g g g ",
"e e e e e w - .     & u g d o     9           V t.p.i.i.5.r.p.7.{ l 5 ` V   p.p.p.p.X..     4 C L ) K K H V 5 #   . y g g g g g ",
"e e e e e w +         * s d o     3.] x l     i.i.p.p.p.# { p.i.i.p.p.p.l   p.p.p.p.o.X   O =.e.r.w.r.y.i.y.w.=.j   . p g g g g ",
"g g g g g e .   t w   o t d o     i.p.p.p.    p.p.p.p.p.  5 p.p.p.p.p.p.2   p.p.p.p.o..   . n j k k m _ :.u.p.p.%.X   < v g g g ",
"g g g g g e . . s t   o t d o     r.p.p.p.    p.p.p.p.p.  O p.p.p.p.p.p.#   p.p.p.p. .                . 5 o.r.p.5.j   @ c t e e ",
"g g g g g s &   . .   & s d o     r.p.p.p.    p.p.p.p.p.    p.p.p.p.p.p..   p.p.p.i.`       O O @ O       3 X.r.0.V   X a e e e ",
"g g g g g g t & . . + t g d .     u.p.p.p.    p.p.p.p.p.    p.p.p.p.p.p.    p.p.p.p.o.      F F F c 6     X j -.e.J   . r e e e ",
"g g g g g g f u e e u g g d .     u.p.p.p.    p.p.p.p.p.    p.p.p.p.p.i.    p.p.p.p.&..   . w e e e w &     > { w._   . y g g g ",
"g g g g g g g g g g g g g s       u.p.p.p.    p.p.p.p.p.    p.p.p.p.p.p.    p.p.p.p.;..   . w e e e w -     O K 7.`   . v g g g ",
"g g g g g g g g g g g g g w       i.p.p.p.    p.p.p.p.p.    p.p.p.p.i.p.    p.p.p.p.2..   o w e e e e w o     V 7.[   . v g g g ",
"g g g g g g e e e e e e e w       u.p.p.p.    p.p.p.p.p.    p.p.p.p.i.p.    p.p.p.p.6.    o w e g g g w $     N 8.{     v g g g ",
"g e e e e e e e e e e e e w       r.p.p.p.    p.p.p.p.p.    p.p.p.p.p.p.    p.p.p.p.7.    & f g g g g d *     n q.{     f g g g ",
"e e e e e e e e e e e e e w .     u.p.p.p.    p.p.p.p.p.    p.p.p.i.p.p.    p.p.p.p.q.    & d g g g g d =     l q.[     f g g g ",
"e e e e e e e e e g g g g d &     u.p.p.p.    p.p.p.p.p.    p.p.p.p.p.p.    p.p.p.p.6.    & d g g g g f <     k e.`     d g g g ",
"e e e e g g g g g g g g g f *     y.p.p.p.    p.p.p.p.p.    p.p.i.p.p.p.    p.p.p.p.7.    & d g g g g g 8     l e._     d g g g ",
"g g g g g g g g g g g g g f *     i.p.p.p.    p.p.p.p.p.    p.p.p.p.p.p.    p.p.p.p.7.    + f g g g g g 7     l q.J     f g g g ",
"g g g g g g g g g g g g g f -     y.p.p.p.    p.p.p.p.p.    p.p.p.p.p.p.    p.p.p.p.6.    + f g g g g b %     n 8.V     f g g g ",
"g g g g g g g g g g g g g f *     i.p.p.p.    p.p.p.p.p.    p.i.p.p.p.p.    p.p.p.p.0.    + d g g g g D       V 6.l   . f g g g ",
"g g g g g g g g g g g g g f *     r.p.p.p.    p.p.p.p.p.    p.p.p.p.p.p.    p.p.p.p.6.    o f g g g f 8       _ 6.3   O f g g g ",
"g g g g g g g g g g g g g d &     i.p.p.p.    p.p.p.p.p.    i.p.p.p.p.p.    p.p.p.p.6.X   o f g s t - O     : =.5.#   % f g g g ",
"g g g g g g g g g g g g g d o     u.p.p.p.    p.p.p.p.p.    i.p.p.p.p.p.    p.p.p.p.5.      + o .         O V 0.;.#   = f g g g ",
"g g g g g g g g g g g g e w       r.p.p.p.    p.p.p.p.p.    p.p.p.p.p.p.    p.p.p.p.=.                X > 4 X.r.&.X   1 f g g g ",
"g g g g g g g g g e e e e w       u.p.p.p.    p.p.p.p.p.    p.p.p.p.p.p..   p.p.p.p.5..     . X X # : 4 x [ 8.u.`     w g g g g ",
"e e e e g g g e e e e e e w       r.p.p.p.    p.p.p.p.p.    p.p.p.p.p.p.X   p.p.p.p.7.O     ) [ { o.%.=.:.7.0.{ #   * s g g g g ",
"e e e e e e g e e e e e e w       i.p.p.p.    p.p.p.p.p.  # p.p.p.p.p.p.;   p.p.p.p.6.O     ) +.&.*.%.O.{ V 2 .   $ u g g g g g ",
"e e e e e e e e e e e e g d       r.p.p.p.O   p.p.p.p.p.  2 p.p.p.p.p.p.h   p.p.p.p.4.X             .           . t g g g g g g ",
"g e e e e e e e e e e g g d .     u.p.p.p.L V p.p.p.p.p.  n p.p.p.p.p.p.Z ; p.p.p.p.:..     .   . .   O # % $ * w w e g g g g g ",
"g g g e e e e e e e e e g d .     u.p.p.p.p.i.p.p.p.p.p.. L p.p.p.p.p.p.;.} p.p.p.p.6.O     w w e t u f i e w e e e e e e g g g ",
"g g g g g e e e e e e e e w o     ,.u.p.p.p.p.p.p.p.p.p.' 8.p.p.p.p.p.p.i.u.p.p.p.p.:.O   . s g g g b g b b e e e e e e e e e g ",
"g g g g g g g g e e e e e w o     6 $.u.p.p.p.p.p.p.p.p.p.p.p.p.p.p.p.p.p.p.p.p.p.y.J     o d g g g g g g b e e e e e e e e e e ",
"g g g g g g g g e e e e e w - o     6 @.0.u.p.p.p.p.p.p.p.p.p.p.p.p.p.p.p.p.p.p.w.`       e g g g g g g e e e e e e e e e e e e ",
"g g g g g g e e e e e e e e w 1 + .   . S #.2.0.u.p.p.p.p.p.p.p.p.p.p.p.p.i.w.=.M     . w f g g g g e e e e e e e e g g e e e e ",
"g g g g g e e e e e e e e e e w w - +     X 0 N P  .$.=.1.<.=.&.&.&.&.&.+.[ B #       - d g g g g g e e e e e e e g g g g g e e ",
"g g g e e e e e e e e g g e e e e w w &           . O @ @ @ @ X X . .               & w g g g g g e e e e e e g g g g g g g g e ",
"g g e e e e e e e g g g g g e e e e e w - o .                               . . . & w e g g g g e e e e e g g g g g g g g g g g ",
"g g e e e e e e g g g g g g g e e w e e e w w - e w 1 - - - - - - - 1 w w e t t w w e e g g g e e e e e e g g g g g g g g g g g ",
"g e e e e e g g g g g g g g g e e e e e g g g g g g d d d s s s s s d d f g g g g e e e g g g e e e e e g g g g g g g g g g g g ",
"g e e e e g g g g g g g g g g g e e e e e g g g g g g g g g g g g g g g g g g g g e e e g g e e e e e g g g g g g g g g g g g g ",
"e e e e e g g g g g g g g g g g g e e e e g g g g g g g g g g g g g g g g g g g g e e e g g e e e e g g g g g g g g g g g g g g ",
"e e e e g g g g g g g g g g g g g e e e e e g g g g g g g g g g g g g g g g g g g e e e g g e e e e g g g g g g g g g g g g g g ",
"e e e e g g g g g g g g g g g g g g e e e e e g g g g g g g g g g g g g g g g g g e e e g e e e e g g g g g g g g g g g g g g g "
};
