/* XPM */
static char *bd1971a7de514c52f5ee95e0c57cdd832HrYk8rqihGO17ym[] = {
/* columns rows colors chars-per-pixel */
"64 64 173 2 ",
"   c #020201",
".  c #090603",
"X  c #0D0903",
"o  c #0B0B0A",
"O  c #130D03",
"+  c #100F0E",
"@  c #161005",
"#  c #1A1204",
"$  c #14110E",
"%  c #19140C",
"&  c #141312",
"*  c #191615",
"=  c #1F1A14",
"-  c #1C1B1B",
";  c #201705",
":  c #251B06",
">  c #291F07",
",  c #281F0F",
"<  c #231D14",
"1  c #211E1E",
"2  c #2D2108",
"3  c #32240A",
"4  c #372A0E",
"5  c #3C2C0D",
"6  c #2D2313",
"7  c #23201D",
"8  c #2A241E",
"9  c #312712",
"0  c #362A13",
"q  c #3D321F",
"w  c #252424",
"e  c #282727",
"r  c #2C2926",
"t  c #2C2A2A",
"y  c #332C24",
"u  c #322E2D",
"i  c #383026",
"p  c #37302A",
"a  c #393128",
"s  c #353232",
"d  c #3B3636",
"f  c #3E3836",
"g  c #3F3A3A",
"h  c #40300E",
"j  c #443311",
"k  c #483612",
"l  c #4C3A14",
"z  c #4C3C1B",
"x  c #523E16",
"c  c #4B3F2B",
"v  c #423A35",
"b  c #413C3C",
"n  c #554117",
"m  c #584217",
"M  c #554118",
"N  c #5B461B",
"B  c #5F4A1B",
"V  c #634C1C",
"C  c #6F551F",
"Z  c #70551F",
"A  c #584521",
"S  c #5F4B22",
"D  c #44403F",
"F  c #4B423C",
"G  c #5A4A32",
"H  c #685126",
"J  c #705520",
"K  c #755A22",
"L  c #7A5E23",
"P  c #7E6124",
"I  c #7F6329",
"U  c #7E6333",
"Y  c #464343",
"T  c #494545",
"R  c #4D4C4C",
"E  c #514D4D",
"W  c #545453",
"Q  c #595655",
"!  c #5C5C5C",
"~  c #625F5E",
"^  c #646362",
"/  c #6A6865",
"(  c #6C6B6A",
")  c #78746B",
"_  c #737272",
"`  c #797777",
"'  c #7D7C7C",
"]  c #836526",
"[  c #886827",
"{  c #8B6A2A",
"}  c #906E2A",
"|  c #8F702D",
" . c #94732C",
".. c #99772D",
"X. c #9B782E",
"o. c #957535",
"O. c #9D7B31",
"+. c #A37E32",
"@. c #A58136",
"#. c #A98333",
"$. c #AF8837",
"%. c #A88338",
"&. c #AF893A",
"*. c #B28A36",
"=. c #B58D3B",
"-. c #B98F39",
";. c #BC923C",
":. c #C3963C",
">. c #C79A3D",
",. c #CB9D3F",
"<. c #AC8B4B",
"1. c #B18B44",
"2. c #BF9541",
"3. c #C19640",
"4. c #CC9E40",
"5. c #C99E48",
"6. c #CEA040",
"7. c #D3A442",
"8. c #D7A843",
"9. c #DCAC45",
"0. c #E0AF46",
"q. c #E0AF48",
"w. c #E1B047",
"e. c #E4B249",
"r. c #EAB64A",
"t. c #EDB84B",
"y. c #F5BE4E",
"u. c #F1BC51",
"i. c #F9C14F",
"p. c #F6C053",
"a. c #FCC551",
"s. c #FFCC53",
"d. c #FFCD58",
"f. c #858584",
"g. c #8C8C8B",
"h. c #949393",
"j. c #9C9A9A",
"k. c #A4A3A2",
"l. c #AEADAB",
"z. c #B6B6B5",
"x. c #B8B6B6",
"c. c #BBBAB9",
"v. c #C0BEBA",
"b. c #C4C2C2",
"n. c #C6C4C4",
"m. c #C9C7C6",
"M. c #CAC8C7",
"N. c #CECCCB",
"B. c #D1CCC6",
"V. c #D1CFCE",
"C. c #D2D0CF",
"Z. c #D3D1D0",
"A. c #D7D5D5",
"S. c #D8D7D6",
"D. c #DADAD9",
"F. c #DDDCDB",
"G. c #E0DFDE",
"H. c #E1E0DF",
"J. c #E2E1E0",
"K. c #E4E3E2",
"L. c #E7E6E5",
"P. c #EBE7E2",
"I. c #EAE9E8",
"U. c #EEECEB",
"Y. c #F1EFEE",
"T. c #F2F0EF",
"R. c #F3F1F0",
"E. c #F5F4F3",
"W. c #F6F4F3",
"Q. c #F9F5F1",
"!. c #F9F7F6",
"~. c #FAF8F7",
"^. c #FCFBFA",
/* pixels */
"g e e e e e e e e e e e e e e e e e g w . . o o o 1 d g g g g g g g g g g g g g g g g g g g g g g g g e e e g g f s t t s f g g ",
"g g g g e e e e e e e e e e e e e e e o   & ! e o * s g g g d s g g g g g g g g g g g g g g g g g g g e e e g s w o o o & 1 s g ",
"g g g g g g g g g e e e e e e e e e e o   & R * . - d g w .       . t g g g g g g g g g g g g g g g e e e e d - .         . - s ",
"g g g g g g g g g g g g g g d w e e e &     .   . * e o       . .     t g g g u - * 1 u g g g g g g e e e e e .   . e s + . . e ",
"g g g g g g g g g g g g s &       . * w & .   o * e &     g N.~.R.k.o   d u o         o e g g g g g e e e w *   . W K.I.( o   - ",
"g g g g g g g g g d g e .   . * *     & w * o o - d     f.^.^.^.^.^.'   o     . & & .   o u g g g g e e e s &   o g.~.^.k.&   - ",
"g g g g f g g b g d t .   e N.L.n.f..   e         +   ^ ^.^.^.^.^.^.V.      j.F.D.l.T o   & g g f g e e e w &   . ! G.L.! o   1 ",
"e e - w - e s g d d +   e E.^.^.^.L._       * e     o A.^.^.^.^.^.^.R.    F.^.^.^.!.A.e . . d g s D t e e e 1 .   & W T o . o t ",
"e * .     . & u s d . . c.^.^.^.^.^.D.&     b.I.^ . s !.^.^.^.^.^.^.Y.. d ^.^.^.^.^.E.g o   d g s R R e e e - &     . . . . & e ",
"- .     .     o s f   . H.^.^.^.^.^.^.b.  . U.^.m.e l.~.^.^.^.^.^.^.E.h.S.^.^.^.^.^.^.d +   f g d T ` s e e e e .     . o & w e ",
"&   . g ^ w   . - e .   M.^.^.^.^.^.^.J.' / ^.^.R.I.^.^.^.^.^.^.^.^.^.^.^.^.^.^.^.^.^.R o . g g g b ~ Y e e e e * & & & - e e e ",
"*   & j.L.^     * e o   e Z.Y.^.^.^.^.^.^.^.^.^.^.^.^.^.^.^.^.^.^.^.^.^.^.^.^.^.^.^.F.s   & d e e e e t e e e e e w e e e e e e ",
"-   o ' k.t   . - e w     w A.^.^.^.^.^.^.^.^.^.^.^.^.^.^.^.^.^.^.^.^.^.^.^.^.^.^.^.f.-       o w e e e e e e e e e e g g g g g ",
"e . . + * . . o w e - .   o J.^.^.^.^.^.^.^.^.^.^.^.^.^.^.^.^.^.^.^.^.^.^.^.^.^.^.^.M.W e e .     * e e e e g g g g g g g g g g ",
"s - . . . . & t g w o   w b.^.^.^.^.^.^.^.^.^.^.^.^.^.^.^.^.^.^.^.^.^.^.^.^.^.^.^.^.^.~.U.C.c.g   . u g g g g g g g g g g g g g ",
"g s w & & - t f e &   o T.^.^.^.^.^.^.^.^.^.^.^.^.^.^.^.^.^.^.^.^.^.^.^.^.^.^.^.^.^.^.^.^.^.E.x..   & d g g g g g g g g g g g g ",
"g g d s s d g e e o   W ^.^.^.^.^.^.^.^.^.^.^.^.^.^.!.^.^.^.^.^.^.^.^.^.^.^.^.^.^.^.D.D.^.^.!.l.+   o e g g g g g g g g g g g g ",
"g g g g g g g e e o   ^ ^.^.^.^.^.^.^.^.^.^.^.^.^.^.^.^.^.^.^.^.^.^.^.^.U.` R E.^.I.g - T.Y.F._ .   o e e g g g g g g g g g g g ",
"g g g g g g g e e &   * E.^.^.~.^.^.^.^.^.^.^.^.Y.E.^.^.h.! K.^.^.^.^.^.j.o   ! ~.K..   d T d o   . * e e e g g g g g g g g g g ",
"g g g g g g g e e e .   - j.j.^ T l.~.^.^.^.^.M.w T z.L.o   W ^.^.^.^.^./     o c.L.            . & w e e e e g g g g g g g g g ",
"g g g g g g g e e e u o           s D.^.^.^.^._     ` H.    o M.^.^.^.F.d   o . + &   .       . 1 d e e e e e g g g g g g g g g ",
"g g g g g g g e e e e w * o       . ! H.R.~.~.e     - /       7 B.Q.P.) .   H 9 X . *       . * w u u * - 7 w e g g g g g g g g ",
"g g g e e e e e e e e e e -         o ( c.v./             A       q <     O q.e. .o.<.                    O 6 q y f g g g g g g ",
"e e e e e e e e e e e e e w           . < .     z U     C t.+.#         X ] s.s.s.d.=.                        . , y f g g g g g ",
"e e e e e e u t e e g g g d o     9           V u.s.a.a.7.y.s.9...l 5 { V   s.s.s.s.+..     4 C P ] L L J V 5 #   . y g g g g g ",
"e e e e e t R g g g g g f d o     5.| x l     a.a.s.s.s.# ..s.a.a.s.s.s.l   s.s.s.s.#.X   O ;.t.y.r.y.i.a.i.r.;.j   . p g g g g ",
"g g g g g g b b g g b g g f o     a.s.s.s.    s.s.s.s.s.  5 s.s.s.s.s.s.2   s.s.s.s.#..   . n j k k m [ ,.p.s.s.*.X   < v g g g ",
"g g g g g g g Y b g b b g f o     y.s.s.s.    s.s.s.s.s.  O s.s.s.s.s.s.#   s.s.s.s.O.                . 5 #.y.s.7.j   @ c t e e ",
"g g g g g g g b T E Y g g d o     y.s.s.s.    s.s.s.s.s.    s.s.s.s.s.s..   s.s.s.a.{       O O @ O       3 +.y.w.V   X a e e e ",
"g g g g g g g g T Q Y g g d .     p.s.s.s.    s.s.s.s.s.    s.s.s.s.s.s.    s.s.s.s.#.      G G G c 6     X j :.t.K   . r e e e ",
"g g g g g g g g g g g g g d .     p.s.s.s.    s.s.s.s.s.    s.s.s.s.s.a.    s.s.s.s.=..   . e e e e e &     > ..r.[   . y g g g ",
"g g g g g g g g g g g g g s       p.s.s.s.    s.s.s.s.s.    s.s.s.s.s.s.    s.s.s.s.>..   . e e e e e -     O L 9.{   . v g g g ",
"g g g g g g g g g g g g g w       a.s.s.s.    s.s.s.s.s.    s.s.s.s.a.s.    s.s.s.s.4..   o e e e e e w o     V 9. .  . v g g g ",
"g g g g g g e e e e e e e w       p.s.s.s.    s.s.s.s.s.    s.s.s.s.a.s.    s.s.s.s.8.    o e e g g g w $     N 0...    v g g g ",
"g e e e e e e e e e e e e w       y.s.s.s.    s.s.s.s.s.    s.s.s.s.s.s.    s.s.s.s.9.    & f g g g g d *     n e...    f g g g ",
"e e e e e e e e e e e e e e .     p.s.s.s.    s.s.s.s.s.    s.s.s.a.s.s.    s.s.s.s.e.    & d g g g g d =     l e. .    f g g g ",
"e e e e e e e e e g g g g d &     p.s.s.s.    s.s.s.s.s.    s.s.s.s.s.s.    s.s.s.s.8.    & d g g g g f <     k t.{     d g g g ",
"e e e e g g g g g g g g g d *     i.s.s.s.    s.s.s.s.s.    s.s.a.s.s.s.    s.s.s.s.9.    & d g g g g g 8     l t.[     d g g g ",
"g g g g g g g g g g g g g f *     a.s.s.s.    s.s.s.s.s.    s.s.s.s.s.s.    s.s.s.s.9.    + f g g g g g 7     l e.K     f g g g ",
"g g g g g g g g g g g g g f *     i.s.s.s.    s.s.s.s.s.    s.s.s.s.s.s.    s.s.s.s.8.    + f g g g g b %     n 0.V     f g g g ",
"g g g g g g g g g g g g g f *     a.s.s.s.    s.s.s.s.s.    s.a.s.s.s.s.    s.s.s.s.w.    + d g g g g F       V 8.l   . f g g g ",
"g g g g g g g g g g g g g f *     y.s.s.s.    s.s.s.s.s.    s.s.s.s.s.s.    s.s.s.s.8.    o f g g g f 8       [ 8.3   O f g g g ",
"g g g g g g g g g g g g g d &     a.s.s.s.    s.s.s.s.s.    a.s.s.s.s.s.    s.s.s.s.8.X   o f g s t - O     : ;.7.#   % f g g g ",
"g g g g g g g g g g g g g d o     p.s.s.s.    s.s.s.s.s.    a.s.s.s.s.s.    s.s.s.s.7.      + o .         O V w.>.#   = f g g g ",
"g g g g g g g g g g g g e e       y.s.s.s.    s.s.s.s.s.    s.s.s.s.s.s.    s.s.s.s.;.                X > 4 +.y.=.X   1 f g g g ",
"g g g g g g g g g e e e e e       p.s.s.s.    s.s.s.s.s.    s.s.s.s.s.s..   s.s.s.s.7..     . X X # : 4 x  .0.p.{     e g g g g ",
"e e e e g g g e e e e e e w       y.s.s.s.    s.s.s.s.s.    s.s.s.s.s.s.X   s.s.s.s.9.O     ]  ...#.*.;.,.9.w...#   * s g g g g ",
"e e e e e e g e e e e e e w       a.s.s.s.    s.s.s.s.s.  # s.s.s.s.s.s.;   s.s.s.s.8.O     ] $.=.-.*.#...V 2 .   $ u g g g g g ",
"e e e e e e e e e e e e g d       y.s.s.s.O   s.s.s.s.s.  2 s.s.s.s.s.s.h   s.s.s.s.6.X             .           . t g g g g g g ",
"g e e e e e e e e e e g g d .     p.s.s.s.P V s.s.s.s.s.  n s.s.s.s.s.s.Z ; s.s.s.s.,..     .   . .   O # % $ * w e e g g g g g ",
"g g g e e e e e e e e e g d .     p.s.s.s.s.a.s.s.s.s.s.. P s.s.s.s.s.s.>.X.s.s.s.s.8.O     w w e t u f i e e e e e e e e g g g ",
"g g g g g e e e e e e e e e o     1.p.s.s.s.s.s.s.s.s.s.} 0.s.s.s.s.s.s.a.p.s.s.s.s.,.O   . s g g g b g b g e e e e e e e e e g ",
"g g g g g g g g e e e e e e o     6 &.p.s.s.s.s.s.s.s.s.s.s.s.s.s.s.s.s.s.s.s.s.s.i.K     o d g g g g g g g e e e e e e e e e e ",
"g g g g g g g g e e e e e e - o     6 @.w.p.s.s.s.s.s.s.s.s.s.s.s.s.s.s.s.s.s.s.r.{       e g g g g g g e e e e e e e e e e e e ",
"g g g g g g e e e e e e e e e 1 + .   . S %.4.w.p.s.s.s.s.s.s.s.s.s.s.s.s.a.r.;.M     . w f g g g g e e e e e e e e g g e e e e ",
"g g g g g e e e e e e e e e e e w * +     X 0 N I O.&.;.3.2.;.=.=.=.=.=.$. .B #       - d g g g g g e e e e e e e g g g g g e e ",
"g g g e e e e e e e e g g e e e e e w &           . O @ @ @ @ X X . .               & w g g g g g e e e e e e g g g g g g g g e ",
"g g e e e e e e e g g g g g e e e e e e - o .                               . . . & w e g g g g e e e e e g g g g g g g g g g g ",
"g g e e e e e e g g g g g g g e e e e e e e w - e w 1 - - - - - - - 1 w e e t t w e e e g g g e e e e e e g g g g g g g g g g g ",
"g e e e e e g g g g g g g g g e e e e e g g g g g g d d d s s s s s d d f g g g g e e e g g g e e e e e g g g g g g g g g g g g ",
"g e e e e g g g g g g g g g g g e e e e e g g g g g g g g g g g g g g g g g g g g e e e g g e e e e e g g g g g g g g g g g g g ",
"e e e e e g g g g g g g g g g g g e e e e g g g g g g g g g g g g g g g g g g g g e e e g g e e e e g g g g g g g g g g g g g g ",
"e e e e g g g g g g g g g g g g g e e e e e g g g g g g g g g g g g g g g g g g g e e e g g e e e e g g g g g g g g g g g g g g ",
"e e e e g g g g g g g g g g g g g g e e e e e g g g g g g g g g g g g g g g g g g e e e g e e e e g g g g g g g g g g g g g g g "
};
