/* XPM */
static char *_4701dfb3cb44b7083a9e1809035244570icB4tvbY2l3SYk[] = {
/* columns rows colors chars-per-pixel */
"64 64 7 1 ",
"  c black",
". c #013607",
"X c #282727",
"o c #3F3A3A",
"O c #4E282E",
"+ c #297E32",
"@ c white",
/* pixels */
"oXXXXXXXXXXXXXXXXXoooooooooooooooooooooooooooooooooXXXoooooooooo",
"ooooXXXXXXXXXXXXXXXXXXoooooooooooooooooooooooooooooXXXoooooooooo",
"oooooooooXXXXXXXXXXXXXXXXoooooooooooooooooooooooooXXXXoooooooooo",
"oooooooooooooooX  XXXXXXXXXXoooooooooooooooooooooo   Xoooooooooo",
"oooooooooooooooo   XXXXXXXXXXXXooooooooooooooooo     Xoooooooooo",
"ooooooooooooooo  +   XXXXXXXXXXXXooooooooooooo   ++ Xooooooooooo",
"ooooooooooooooo ++++  oooXXXXXXXXXoooooooooo   ++++ XXoooooooooo",
"XXXoooooooooooX +++++   ooooXXXXXXXXooooo    ++..+  XXoooooooooo",
"XXXXXooooooooXX +....++          XXX      ++++...+ XXXXooooooXXX",
"XXXXXXXXooooXXX  +....++++++  ++     ++++++++...++ XXXXoXXXXXXXX",
"XXXXXXXXXXoXXXXX ++....+++++++++++++++++++++....+  XXXXXXXXXXXXX",
"ooXXXXXXXXXXXXXX ++....++++++++++++++++++++....++ XXXXXXXXXXXXXX",
"oooooXXXXXXXXXXo  ++.....+++++++++++++++++....++  XXXXXXXXXooooo",
"oooooooXXXXXXXooo ++.....+++++++++++++++++...+++ XXXXXoooooooooo",
"oooooooooXXXXoooo ++++...+++++++++++++++++...++  Xoooooooooooooo",
"ooooooooXXXXXoooo  ++++++++  +++++++  +++++++++ XXXooooooooooooo",
"oooooooXXXXXoooooo ++++++++  +++++++  ++++++++ XXXXXoooooooooooo",
"oooooooXXXXXoooooo +++++++++++++++++++++++++++ XXXXXXooooooooooo",
"oooooooXXXXooooooo  +++++++++++ +++ +++++++++  oXXXXXXoooooooooo",
"oooooooXXXooooooooo  +++++++++ @ + @ ++++++++ oooXXXXXXooooooooo",
"oooooooXXXoooooooooo ++++++++ @@ + @@ +++++++ ooooXXXXXooooooooo",
"oooooooXXXXXXXXXXXXX  ++++++           +++++  oooooXXXXXoooooooo",
"oooXXXXXXXXXXXXXXXXXX  +++++++++++++++++++++ oooooooXXXXXooooooo",
"XXXXXXXXXXXXXXXXXXXXXX ++++++++++++++++++++  oooooooXXXXXooooooo",
"XXXXXXXXXXooooooXXXXXX  +++++++++++++++++++ oooooooooXXXXooooooo",
"XXXXXXooooooooooXXX     +++++++++++++++++++  oooooooooXXXXoooooo",
"ooooooooooooooooXX  ++++++++++++++++++++++++   oooooooXXXXoooooo",
"oooooooooooooooo   +++++++++++++++++++++++++++    ooooXXXXoXXXXX",
"oooooooooooooo   ++++++++++++++++++++++++++++++++  oooXXXXXXXXXX",
"ooooooooooooo  +++++++++++++++++++++++++++++++++++  XXXXXXXXXXXX",
"ooooooooooo   +++++++++++++++++++++++++++++++++++++  XXXXXXXXooo",
"oooooooooo  +++++++++++++++++++++++++++++++++++++++++  XXooooooo",
"ooooooooo  ++++++++++++++.+++++++++++++++.++++++++++++    oooooo",
"ooooooX   +++++++++++++++++++++++++++++++++++++++++++++++  ooooo",
"oXXXXX  ++++++++++++++++++++++++++++++++++++++++++++++++++   ooo",
"XXXX   +++++++++++++++++++++++++++++++++++++++++++++++++++++ ooo",
"XXX  +++++++++++++++++++++++++++++++++++++++++++++++++++++++ ooo",
"XX  ++++++++++++++++++++++++++++++++++++++++++++++++++++++++ ooo",
"oo +++++++++++++++++++++++++++++++++++++++++++++++++++++++++ ooo",
"oo ++++++  ++++++++++++++++++++++++++++++++++++++++++++ ++++  oo",
"o  ++++++   ++++++++++++++++++++++++++++++++++++++++++  +++++ oo",
"o ++++++  o  ++++++++++++++++++++++++++++++++++++++++   +++++ oo",
"o ++++++ ooo  ++++++++++++++++++++++++++++++++++++++  X +++++ oo",
"o ++++++  ooo  +++++++++++++++++++..+++++++++++++++  oX +++++ oo",
"  +++++++ ooXX  ++++++++++++++++++..+++++++++++++++ ooX +++++  o",
" ++++++++ XXXXX  +++++++++++++++++++++++++++++++++  oo  ++++++ o",
" ++++++++  XXXXX  +++++++++++++++++++++++++++++++  XXo +++++++ o",
" +++++++++  XXXoo  +++++++++++++++++++++++++++++  XXXX +++++++ o",
" ++++++++++  oooo                                XXXX  +++++++ o",
"  ++++++++++  oooo OOOOOOOOOOOOOOOOOOOOOOOOOOOO  oXX  ++++++++ o",
"o +++++++++++ oooo OOOOOO  OOOOOOOOOOOOOOOOOOOO oooo +++++++++ o",
"o +++++++++++  ooo OOOOO   OOOOOOOOOOOOOOOOOOO  ooo             ",
"o              ooo OOOO  + OOOOO   OOOOOOOOOOO oooo @@   @@@ @@ ",
"o @@@  @@@  @@ Xoo OOOO  + OOOO  o OOOOOOOOOO  oooo @  X @@@ @@ ",
"o @@@  @@@   @ XXo  OO  ++  OO  XX  O  OOOOOO ooooX @ XX  @   @ ",
"o @@   @@@ X   XXXo O +++++ O  XXXX O   OOOOO  oooX   XXX @ o @ ",
"o @@ X @@  o  XXXXX   +++++   XXXXX   X OOOOO  ooXXX XXoo   o   ",
"o @  X  @ ooo XXXXX  ++++++  XXoooo  oo  OOO    XXXXXooooo ooo o",
"o   XXX @ oooooXXX   ++++++ ooooooo ooo  OO  ++      ooooooooooo",
"o  XXXo   oooooX   ++++++++ ooooooooooo     ++++++++     ooooooo",
"o  XXooo oooooo  ++++++++++  oooooooooo  +++++++++++++++ ooooooo",
"X XXXooo ooooo  ++++++++++++ ooooooooooo +++++++++++++++ ooooooo",
"XXXXoooooooooo  +++++++++++  ooooooooooo  ++++           ooooooo",
"XXXXooooooooooo             ooooooooooooo      XXooooooooooooooo"
};
