/* XPM */
static char *edfd60f41fd84ad5b9a0d410639dcbd3Qcr2cdjLlOra6s1l[] = {
/* columns rows colors chars-per-pixel */
"64 64 7 1 ",
"  c black",
". c #211616",
"X c #282727",
"o c #3F2929",
"O c #3F3A3A",
"+ c #637130",
"@ c #97A564",
/* pixels */
"OXXXXXXXXXXXXXXXXXOOOOOOOOOOOOOOOOOOOOOOOOOOOOOOOOOXXXOOOOOOOOOO",
"OOOOXXXXXXXXXXXXXXXXXXOOOOOOOOOOOOOOOOOOOOOOOOOOOOOXXXOOOOOOOOOO",
"OOOOOOOOOXXXXXXXXXXXXXXXXOOOOOOOOOOOOOOOOOOOOOOOOOXXXXOOOOOOOOOO",
"OOOOOOOOOOOOOOOXXXXXXXXXXXXXOOOOOOOOOOOOOOOOOOOOOOXXXXOOOOOOOOOO",
"OOOOOOOOOOOOOOOOOOXXXXXXXXXXXXXOOOOOOOOOOOOOOOOOOOXXXXOOOOOOOOOO",
"OOOOOOOOOOOOOOOOXXXXXXXXXXXXXXXXXOOOOOOOOOOOOOOOOOXXXOOOOOOOOOOO",
"OOOOOOOOOOOOOOOXXXXXXXOOOXXXXXXXXXOOOOOOOOOOOOOOOOXXXXOOOOOOOOOO",
"XXXOOOOOOOOOOOXXXXXXX           XXXXOOOOOOOOOOOOOOXXXXOOOOOOOOOO",
"XXXXXOOOOOOOOXXXXXXO               XXOOOOOOOOOOOOOXXXXXOOOOOOXXX",
"XXXXXXXXOOOOXXXXXX     ++++++++++      OOOOOOOOOOOOXXXXOXXXXXXXX",
"XXXXXXXXXXOXXXXXX     ++.....   +        OOOOOOOOOOXXXXXXXXXXXXX",
"OOXXXXXXXXXXXXXXO   +++......   +++++      OOOOXXXXXXXXXXXXXXXXX",
"OOOOOXXXXXXXXXXO   ++........   ....+++     XXXXXXXXXXXXXXXOOOOO",
"OOOOOOOXXXXXXXO    +.........   ......+++    XXXXXXXXXOOOOOOOOOO",
"OOOOOOOOOXXXXOO   ++....o....   ........++    XXXXOOOOOOOOOOOOOO",
"OOOOOOOOXXXXXO   ++....oo....   .........++    XXXXOOOOOOOOOOOOO",
"OOOOOOOXXXXXOO   +.....o.....   ..oo......++   XXXXXOOOOOOOOOOOO",
"OOOOOOOXXXXXO   ++...........   ...o..o....++   XXXXXOOOOOOOOOOO",
"OOOOOOOXXXXOO   +............   ......o.....+   XXXXXXOOOOOOOOOO",
"OOOOOOOXXXOO   ++............   ......oo....++   XXXXXXOOOOOOOOO",
"OOOOOOOXXXOO   +.........oo..   .......o.....+   OXXXXXOOOOOOOOO",
"OOOOOOOXXXX   ++.........o...   .............++   OXXXXXOOOOOOOO",
"OOOXXXXXXXX   +.....o....o...   ..............+   OOXXXXXOOOOOOO",
"XXXXXXXXXXX  ++.....o....o...   ..............++   OXXXXXOOOOOOO",
"XXXXXXXXXX   +......o....o...   ...............+   OOXXXXOOOOOOO",
"XXXXXXOOOO   +.....oo........   ...............++  OOOXXXXOOOOOO",
"OOOOOOOOOO  ++.....o.........   ................+  OOOXXXXOOOOOO",
"OOOOOOOOOO  +................   ...........oo...+  OOOXXXXOXXXXX",
"OOOOOOOOO   +................   ......o.....o...+  OOOXXXXXXXXXX",
"OOOOOOOOO   +...o............   ......oo....o...+  XXXXXXXXXXXXX",
"OOOOOOOOO  ++...o.......o....   .......oo.......+  XXXXXXXXXXOOO",
"OOOOOOOO   +....o.......o....   ................+  XXXXXXOOOOOOO",
"OOOOOOOO   +...oo............   ................+  XXXXOOOOOOOOO",
"OOOOOOXX  ++...o.............   ...oo...........+  XXXXOOOOOOOOO",
"OXXXXXXX  +.........  .......   ...o............+  OXXXXOOOOOOOO",
"XXXXXXXX  +........    ......   ...o............+   XXXXOOOOOOOO",
"XXXXXXX   +........ @@  .....   ...........o....+   XXXXOOOOOOOO",
"XXXXOOO   +.......  @@@ .....   .....o.....o....+   OXXXOOOOOOOO",
"OOOOOOO  ++....... @@@@ .....   ....oo.....oo...++  OXXXOOOOOOOO",
"OOOOOO   +........  @@  .....   ....o.......o....+  OXXXXOOOOOOO",
"OOOOOO   +.........    ......   ....o............+  OXXXXOOOOOOO",
"OOOOOO  ++...................   ...oo............+  OXXXXOOOOOOO",
"OOOOOO  +....................   ...o.............+  OOXXXOOOOOOO",
"OOOOO   +................o...   .................+  OOXXXOOOOOOO",
"OOOOO   +................o...   .................+  OOXXXOOOOOOO",
"OOOOO  ++.....o..........o...   .........o....o..+  OOXXXOOOOOOO",
"XXXX   +.....oo.........oo...   ...o.....o....o..+  XOXXXOOOOOOO",
"XXXX   +.....o..........o....   ...o..........o..+  XXXXXOOOOOOO",
"XXXX  ++................o....   ...oo.........o..+  XXXXXOOOOOOO",
"OXXX  +................o.....   ..............o..+  XXXXXXXOOOOO",
"OOOX  +....o.................   ..............o..+  XXXXXXXXXOOO",
"OOOO  +...oo.................   .................+  OOXXXXXXXXXO",
"OOOO  +......................   .................+  OOXXXXXXXXXX",
"OOOO  +......................   .................+  XXXXXXXXXXXX",
"OOOO  ++++++++++++++++++++++++++++++++++++++++++++  XXXXXXOOXXXX",
"OOOO                                                XXXXXOOOOOXX",
"OOOX                                                XXXOOOOOOOOX",
"OOXXXXXXXOOOOOXXXXXXXXXXXXXXXXXOOOOOOOOOXXXXOOOOXXXXXOOOOOOOOOOO",
"OOXXXXXXOOOOOOOXXXXXXXXXOOOOOOOOOOOOOOOOXXXXOOOXXXXXXOOOOOOOOOOO",
"OXXXXXOOOOOOOOOXXXXXOOOOOOOOOOOOOOOOOOOOOXXXOOOXXXXXOOOOOOOOOOOO",
"OXXXXOOOOOOOOOOOXXXXXOOOOOOOOOOOOOOOOOOOOXXXOOXXXXXOOOOOOOOOOOOO",
"XXXXXOOOOOOOOOOOOXXXXOOOOOOOOOOOOOOOOOOOOXXXOOXXXXOOOOOOOOOOOOOO",
"XXXXOOOOOOOOOOOOOXXXXXOOOOOOOOOOOOOOOOOOOXXXOOXXXXOOOOOOOOOOOOOO",
"XXXXOOOOOOOOOOOOOOXXXXXOOOOOOOOOOOOOOOOOOXXXOXXXXOOOOOOOOOOOOOOO"
};
