/* XPM */
static char *_d002a043cf6490f9c436083721a453aMuiuyfE80trt7cKE[] = {
/* columns rows colors chars-per-pixel */
"64 64 2 1 ",
"  c #282727",
". c #3F3A3A",
/* pixels */
".                 .................................   ..........",
"....                  .............................   ..........",
".........                .........................    ..........",
"...............             ......................    ..........",
"..................             ...................    ..........",
"................                 .................   ...........",
"...............       ...         ................    ..........",
"   ...........       .......        ..............    ..........",
"     ........      ...........       .............     ......   ",
"        ....      .............        ............    .        ",
"          .      ................       ...........             ",
"..              ..................       ......                 ",
".....          .....................                       .....",
".......       .......................                 ..........",
".........    .....................                ..............",
"........     ...................                   .............",
".......     .................              ...      ............",
".......     ...............          ..........      ...........",
".......    ...............         .............      ..........",
".......   ...............       .................      .........",
".......   ...............     ....................     .........",
".......             .....    ......................     ........",
"...                         ........................     .......",
"                              ......................     .......",
"          ......                  ...................    .......",
"      ..........   ....             ..................    ......",
"................   ........            ...............    ......",
"................   ............          .............    .     ",
"...............    ..............           ..........          ",
"...............    .................          ...               ",
"...............    ...................                       ...",
"...............   .......................                .......",
".............     .......................              .........",
"......             ....................         ...    .........",
".                  ..................        .......    ........",
"                   .................       .........    ........",
"         .......   ...............        ..........    ........",
"    ............   ...............      .............   ........",
"................    .............      ..............   ........",
"................    ............     ................    .......",
"................     ..........      ................    .......",
".................    ..........     .................    .......",
".................    .........     ...................   .......",
"................                  ....................   .......",
"............                           ...............   .......",
".........                                         ....   .......",
"    ...            .........                         .   .......",
"      .        .....................                     .......",
"            ........................     ......          .......",
".          .........................     .........         .....",
"...         .........................     ..........         ...",
".....         ........................     ...........         .",
"........       ........................    ...........          ",
"........        .....................      .........            ",
"......           ...........               .......        ..    ",
".....             ...                      .......       .....  ",
"...        ..                               .....      ........ ",
"..       .....                 .........    ....     ...........",
"..      .......         ................    ...      ...........",
".     .........     .....................   ...     ............",
".    ...........     ....................   ..     .............",
"     ............    ....................   ..    ..............",
"    .............     ...................   ..    ..............",
"    ..............     ..................   .    ..............."
};
