/* XPM */
static char *_b40e9fac9174b19f5fdae275444f95d5QIxZ8Vf5S1EOVkP[] = {
/* columns rows colors chars-per-pixel */
"64 64 17 1 ",
"  c black",
". c #070000",
"X c #340808",
"o c #282727",
"O c #392020",
"+ c #382525",
"@ c #3F3A3A",
"# c #4D0404",
"$ c #786D1A",
"% c #434642",
"& c #535B51",
"* c #747474",
"= c #E262C5",
"- c #EB9C9C",
"; c #8192FE",
": c #F99AF6",
"> c white",
/* pixels */
"@@@@@@@@@@ooo@@@@@@@@@@@@@@@@@@@@@@@@@@@@@@@@@ooooooooooooo    @",
"   @@@@@@@ooo@@@@@@@@@@@@@@@@@@@@@@@@@@@@@ooooooooooooooo      @",
"     @@@@@oooo@@@@@@@@@@@@@              ooooooooooooo         @",
"       @@@oooo@@@@@@         *****%****       o        $$$$$   @",
" $$$      oooo@      **%%*********%%*******           $$$$$$   @",
" $$$$$          *******%***********%%********   $$$$$$$$$$$$  @@",
" $$$$$$     **********%%************%%********  $$$$$$$$$$    @@",
" $$$$$$$$$$ *********%%**************%%*******  $$$$$$$$$    ooo",
"  $$$$$$$$$ *********%****************%*******  $$$$$$      oooo",
"  $$$$$$$$$ *********%****************%%******  $$$$$     oooooo",
"    $$$$$$$ *********%*****...................         ooooooooo",
"o              ................................       oooooooo@@",
"@@@            ..............--------------....@@oooooooooo@@@@@",
"@@@@@@@@@@ooo.-----------------------------.@@@@@@ooooooo@@@    ",
"@@@@@@@@@@@@@.-----------------------------.@@@@@@@oooo@@@@@ %% ",
"@@@@@@@@@@@@@.--------------------   ------.@@@@@@@ooooo@@@  %% ",
"@@@@@@@@@@@@o.-------   ----------   ------.@@@@@@@@ooooo@  %%% ",
"@@@@@@@@@@@o..-------   ----------   --:::-.@@@@@@@@ooooo@ %%%% ",
"@@@@@@@@@@oo.--------   ----------   --:::-.@@@@@@@@@ooo   %%%% ",
"@@@@@@@@@ooo.--:::---   ---------------:::-..@@@@@@@@@   %%%%%% ",
"@@@@@@@@@ooo.--:::-------------------------..@@@@@@    %%%%%%%% ",
"@@@@@@@@ooo..--:::---------------------  ....   o   %%%%%%%%%%% ",
"@@@@@@@oo  ..-------------              #####      %%%%%%%%%%%% ",
"@@@@@@@oo  ....               ##################  %%%%%%%%%%%%% ",
"@@@@@@@o  ######################################  %%%%%%%%%%%%% ",
"@@@@@@oo #######################################  %%%%%%%%%%%%% ",
"@@@@@@oo #######################################  %%%%%%%%%%%%% ",
"ooooo@oo #######################################  %%%%%%%%%%%%% ",
"oo        #####################################   %   OO %%%%%% ",
"   %%%%%  #####################################     @ OO  %%%%% ",
" ++++%%%% #####################################  @@@@ OO  %%%%% ",
" %%%%++++  ####################################   @@@ OO   %%%% ",
" %%%%%%%%  ###################################  O           %%% ",
" ++%%%%%%% ##################################  OOO &&  && @  %% ",
" %%++%%%%%  ################################    OO &   && oo %% ",
" %%%%+++%%%  #############################   %% OO & O && oo  % ",
" %%%%%%%++%% ############################   %%% OO & O && ooo   ",
" %%%%%%%%%++  #########################    %%%%  O & O && @@ooo ",
" %%%%%%%%%%%%   ##################       %%%%%%% O   O && @@@@@@",
"  %%%%%+++++%%%    ############       %%%%%%%%%%   @ O    @@@@@@",
"@ %%%++++++++%%%%                %%%%%%%          @  OOO @@@@@@@",
"@ ++++++$$++++%%%%     %%%%%%% %%%%%     &&&&&&&& @ OOOO @@@@@@@",
"@ %%%++$$$$$++%%%% &&       %% %%    &&&&&&&&&&&& @ OOOO @@@@@@@",
"@ %%%++$$$$$+++%%% &&&&&&&&           &&&&&&&&&&& @ OOO  @@@@@@@",
"@ %%%++$$$$+++%+++ &&&&&&    ++++++++   &&&&&&&&& o OOO  @@@@@@@",
"@ %%%+++++++++%%%% &&&&   +++++XXX+++++  &&&&&&&& o OOO @@@@@@@@",
"@  %%%+++++++%%%%% &&   ++++++XXXXX+++++  &&&&&&&   OO  o@@@oooo",
"@@ +++%%%++%%%%%%  &  ++++XXX+XXXXX+XXX++  &&&&&&   OO oo@oooooo",
"@@ %%%++++%%%%%%% &  ++++XXXXXXXXXXXXXXX++  &&&&&  OOO ooooooooo",
"@@  %%%%%%++++%%% & +++++XXXXX+XXX+XXXXX+++ &&&&   OO  oooooooo@",
"@@@ %%%%%%%%%%+++   +++++XXXXX+XXX+XXXXX+++ &&&  @ OO ooooooo@@@",
"@oo  %%%%%%%%%%%%  +++++++XXX+XXXXX+XXX++++ &   @@ OO ooooo@@@@@",
"oooo  ++++%%%%%%     +++++++++XXXXX+++++++    @@@o OO oo@@@@@@@@",
"ooooo  %%%+++++  @@@   +++++++XXXXX++++++    @@@o  O  oo@@@@@@@@",
"oooo@@    %%%%  @@@@@o      +++XXX++       @@@@oo OO ooooo@@@@@@",
"oo@@@@@oo      @@@@@@o ;;;;          ;;;;;   @ooo OO oooooo@@@@@",
"o@@@@@@@@oooooo@@@@@o  ;;;;;;; ooo ;;;;;;;;;  ooo O  oooooooo@@@",
"@@@@@@@@@@@ooooo@@   ========= @@o ==========  oo   @@@ooooooo@@",
"@@@@@@@@@@@ooooo   >>>>>>>>>>  @@@  >>>>>>>>>> oo@@@@@@@oooooo@@",
"@@@@@@@@@@@@oooo ===========  @@@@@   ========  o@@@@@@@@@ooooo@",
"@@@@@@@@@@@@@oo  ;;;;;;;;    @@@@@@@@   ;;;;;;;  @@@@@@@@@@oooo@",
"@@@@@@@@@@@@@@o ;;;;;     @@@@@@@@@@@@@      ;;; @@@@@@@@@@ooooo",
"@@@@@@@@@@@@@@o       o@@@@@@@@@@@@@@@@@@@oo     @@@@@@@@@@@oooo",
"@@@@@@@@@@@@@@@oooo@ooo@@@@@@@@@@@@@@@@@@ooooo@@@@@@@@@@@@@@oooo"
};
