/* XPM */
static char *_673ab50dfbc4040cc60350ae6c4947bI28iIQEpPV8RL262[] = {
/* columns rows colors chars-per-pixel */
"64 64 17 1 ",
"  c black",
". c #070000",
"X c #340808",
"o c #282727",
"O c #392020",
"+ c #382525",
"@ c #3F3A3A",
"# c #4D0404",
"$ c #786D1A",
"% c #434642",
"& c #535B51",
"* c #747474",
"= c #E262C5",
"- c #EB9C9C",
"; c #8192FE",
": c #F99AF6",
"> c white",
/* pixels */
"@    ooooooooooooo@@@@@@@@@@@@@@@@@@@@@@@@@@@@@@@@@ooo@@@@@@@@@@",
"@      ooooooooooooooo@@@@@@@@@@@@@@@@@@@@@@@@@@@@@ooo@@@@@@@   ",
"@         ooooooooooooo              @@@@@@@@@@@@@oooo@@@@@     ",
"@   $$$$$        o       ****%*****         @@@@@@oooo@@@       ",
"@   $$$$$$           *******%%*********%%**      @oooo      $$$ ",
"@@  $$$$$$$$$$$$   ********%%***********%*******          $$$$$ ",
"@@    $$$$$$$$$$  ********%%************%%**********     $$$$$$ ",
"ooo    $$$$$$$$$  *******%%**************%%********* $$$$$$$$$$ ",
"oooo      $$$$$$  *******%****************%********* $$$$$$$$$  ",
"oooooo     $$$$$  ******%%****************%********* $$$$$$$$$  ",
"ooooooooo         ...................*****%********* $$$$$$$    ",
"@@oooooooo       ................................              o",
"@@@@@oooooooooo@@....--------------..............            @@@",
"    @@@ooooooo@@@@@@.-----------------------------.ooo@@@@@@@@@@",
" %% @@@@@oooo@@@@@@@.-----------------------------.@@@@@@@@@@@@@",
" %%  @@@ooooo@@@@@@@.------   --------------------.@@@@@@@@@@@@@",
" %%%  @ooooo@@@@@@@@.------   ----------   -------.o@@@@@@@@@@@@",
" %%%% @ooooo@@@@@@@@.-:::--   ----------   -------..o@@@@@@@@@@@",
" %%%%   ooo@@@@@@@@@.-:::--   ----------   --------.oo@@@@@@@@@@",
" %%%%%%   @@@@@@@@@..-:::---------------   ---:::--.ooo@@@@@@@@@",
" %%%%%%%%    @@@@@@..-------------------------:::--.ooo@@@@@@@@@",
" %%%%%%%%%%%   o   ....  ---------------------:::--..ooo@@@@@@@@",
" %%%%%%%%%%%%      #####              -------------..  oo@@@@@@@",
" %%%%%%%%%%%%%  ##################               ....  oo@@@@@@@",
" %%%%%%%%%%%%%  ######################################  o@@@@@@@",
" %%%%%%%%%%%%%  ####################################### oo@@@@@@",
" %%%%%%%%%%%%%  ####################################### oo@@@@@@",
" %%%%%%%%%%%%%  ####################################### oo@ooooo",
" %%%%%% OO   %   #####################################        oo",
" %%%%%  OO @     #####################################  %%%%%   ",
" %%%%%  OO @@@@  ##################################### %%%%++++ ",
" %%%%   OO @@@   ####################################  ++++%%%% ",
" %%%           O  ###################################  %%%%%%%% ",
" %%  @ &&  && OOO  ################################## %%%%%%%++ ",
" %% oo &&   & OO    ################################  %%%%%++%% ",
" %  oo && O & OO %%   #############################  %%%+++%%%% ",
"   ooo && O & OO %%%   ############################ %%++%%%%%%% ",
" ooo@@ && O & O  %%%%    #########################  ++%%%%%%%%% ",
"@@@@@@ && O   O %%%%%%%       ##################   %%%%%%%%%%%% ",
"@@@@@@    O @   %%%%%%%%%%       ############    %%%+++++%%%%%  ",
"@@@@@@@ OOO  @          %%%%%%%                %%%%++++++++%%% @",
"@@@@@@@ OOOO @ &&&&&&&&     %%%%% %%%%%%%     %%%%++++$$++++++ @",
"@@@@@@@ OOOO @ &&&&&&&&&&&&    %% %%       && %%%%++$$$$$++%%% @",
"@@@@@@@  OOO @ &&&&&&&&&&&           &&&&&&&& %%%+++$$$$$++%%% @",
"@@@@@@@  OOO o &&&&&&&&&   ++++++++    &&&&&& +++%+++$$$$++%%% @",
"@@@@@@@@ OOO o &&&&&&&&  +++++XXX+++++   &&&& %%%%+++++++++%%% @",
"oooo@@@o  OO   &&&&&&&  +++++XXXXX++++++   && %%%%%+++++++%%%  @",
"oooooo@oo OO   &&&&&&  ++XXX+XXXXX+XXX++++  &  %%%%%%++%%%+++ @@",
"ooooooooo OOO  &&&&&  ++XXXXXXXXXXXXXXX++++  & %%%%%%%++++%%% @@",
"@oooooooo  OO   &&&& +++XXXXX+XXX+XXXXX+++++ & %%%++++%%%%%%  @@",
"@@@ooooooo OO @  &&& +++XXXXX+XXX+XXXXX+++++   +++%%%%%%%%%% @@@",
"@@@@@ooooo OO @@   & ++++XXX+XXXXX+XXX+++++++  %%%%%%%%%%%%  oo@",
"@@@@@@@@oo OO o@@@    +++++++XXXXX+++++++++     %%%%%%++++  oooo",
"@@@@@@@@oo  O  o@@@    ++++++XXXXX+++++++   @@@  +++++%%%  ooooo",
"@@@@@@ooooo OO oo@@@@       ++XXX+++      o@@@@@  %%%%    @@oooo",
"@@@@@oooooo OO ooo@   ;;;;;          ;;;; o@@@@@@      oo@@@@@oo",
"@@@oooooooo  O ooo  ;;;;;;;;; ooo ;;;;;;;  o@@@@@oooooo@@@@@@@@o",
"@@ooooooo@@@   oo  ========== o@@ =========   @@ooooo@@@@@@@@@@@",
"@@oooooo@@@@@@@oo >>>>>>>>>>  @@@  >>>>>>>>>>   ooooo@@@@@@@@@@@",
"@ooooo@@@@@@@@@o  ========   @@@@@  =========== oooo@@@@@@@@@@@@",
"@oooo@@@@@@@@@@  ;;;;;;;   @@@@@@@@    ;;;;;;;;  oo@@@@@@@@@@@@@",
"ooooo@@@@@@@@@@ ;;;      @@@@@@@@@@@@@     ;;;;; o@@@@@@@@@@@@@@",
"oooo@@@@@@@@@@@     oo@@@@@@@@@@@@@@@@@@@o       o@@@@@@@@@@@@@@",
"oooo@@@@@@@@@@@@@@ooooo@@@@@@@@@@@@@@@@@@ooo@oooo@@@@@@@@@@@@@@@"
};
