/* XPM */
static char *d6220083302a4062ccb638b606e636e822emlWmqNbFPGJf2[] = {
/* columns rows colors chars-per-pixel */
"64 64 17 1 ",
"  c black",
". c #070000",
"X c #340808",
"o c #282727",
"O c #392020",
"+ c #382525",
"@ c #3F3A3A",
"# c #4D0404",
"$ c #786D1A",
"% c #434642",
"& c #535B51",
"* c #747474",
"= c #E262C5",
"- c #EB9C9C",
"; c #8192FE",
": c #F99AF6",
"> c white",
/* pixels */
"@ooooooooooooooooo@@@@@@@@@@@@@@@@@@@@@@@@@@@@@@@@@ooo@@@@@    @",
"   @oooooooooooooooooo@@@@@@@@@@@@@@@@@@@@@@@@@@@@@ooo@@@      @",
"     @@@@oooooooooooooooo@@              @@@@@@@@@oooo         @",
"       @@@@@@@@ooooo         *****%****       @        $$$$$   @",
" $$$      @@@@@      **%%*********%%*******           $$$$$$   @",
" $$$$$          *******%***********%%********   $$$$$$$$$$$$  @@",
" $$$$$$     **********%%************%%********  $$$$$$$$$$    @@",
" $$$$$$$$$$ *********%%**************%%*******  $$$$$$$$$    @@@",
"  $$$$$$$$$ *********%****************%*******  $$$$$$      @ooo",
"  $$$$$$$$$ *********%****************%%******  $$$$$     oooooo",
"    $$$$$$$ *********%*****...................         ooooooooo",
"@              ................................       oooooooooo",
"@@@            ..............--------------....oooooooooooo@@@@@",
"@@@@@@@oooooo.-----------------------------.oooooooooo@@@@@@    ",
"@@@@@@@@@oooo.-----------------------------.oooooo@@@@@@@@@@ %% ",
"@@@@@@@@ooooo.--------------------   ------.ooooooo@@@@@@@@  %% ",
"@@@@@@@ooooo@.-------   ----------   ------.@@oooooo@@@@@@  %%% ",
"@@@@@@@ooooo..-------   ----------   --:::-.@@@oooooo@@@@@ %%%% ",
"@@@@@@@oooo@.--------   ----------   --:::-.@@@@oooooo@@   %%%% ",
"@@@@@@@ooo@@.--:::---   ---------------:::-..@@@@ooooo   %%%%%% ",
"@@@@@@@ooo@@.--:::-------------------------..@@@@@o    %%%%%%%% ",
"@@@@@@@oooo..--:::---------------------  ....   @   %%%%%%%%%%% ",
"@@@oooooo  ..-------------              #####      %%%%%%%%%%%% ",
"ooooooooo  ....               ##################  %%%%%%%%%%%%% ",
"oooooooo  ######################################  %%%%%%%%%%%%% ",
"oooooo@@ #######################################  %%%%%%%%%%%%% ",
"@@@@@@@@ #######################################  %%%%%%%%%%%%% ",
"@@@@@@@@ #######################################  %%%%%%%%%%%%% ",
"@@        #####################################   %   OO %%%%%% ",
"   %%%%%  #####################################     o OO  %%%%% ",
" ++++%%%% #####################################  oooo OO  %%%%% ",
" %%%%++++  ####################################   ooo OO   %%%% ",
" %%%%%%%%  ###################################  O           %%% ",
" ++%%%%%%% ##################################  OOO &&  && @  %% ",
" %%++%%%%%  ################################    OO &   && @@ %% ",
" %%%%+++%%%  #############################   %% OO & O && @@  % ",
" %%%%%%%++%% ############################   %%% OO & O && @@@   ",
" %%%%%%%%%++  #########################    %%%%  O & O && @@@@@ ",
" %%%%%%%%%%%%   ##################       %%%%%%% O   O && @@@@@@",
"  %%%%%+++++%%%    ############       %%%%%%%%%%   @ O    @@@@@@",
"@ %%%++++++++%%%%                %%%%%%%          @  OOO @@@@@@@",
"@ ++++++$$++++%%%%     %%%%%%% %%%%%     &&&&&&&& @ OOOO @@@@@@@",
"@ %%%++$$$$$++%%%% &&       %% %%    &&&&&&&&&&&& @ OOOO @@@@@@@",
"@ %%%++$$$$$+++%%% &&&&&&&&           &&&&&&&&&&& @ OOO  @@@@@@@",
"@ %%%++$$$$+++%+++ &&&&&&    ++++++++   &&&&&&&&& @ OOO  @@@@@@@",
"@ %%%+++++++++%%%% &&&&   +++++XXX+++++  &&&&&&&& @ OOO o@@@@@@@",
"o  %%%+++++++%%%%% &&   ++++++XXXXX+++++  &&&&&&&   OO  o@@@@@@@",
"oo +++%%%++%%%%%%  &  ++++XXX+XXXXX+XXX++  &&&&&&   OO oo@@@@@@@",
"oo %%%++++%%%%%%% &  ++++XXXXXXXXXXXXXXX++  &&&&&  OOO oo@@@@@@@",
"@o  %%%%%%++++%%% & +++++XXXXX+XXX+XXXXX+++ &&&&   OO  oooo@@@@@",
"@@@ %%%%%%%%%%+++   +++++XXXXX+XXX+XXXXX+++ &&&  @ OO ooooooo@@@",
"@@@  %%%%%%%%%%%%  +++++++XXX+XXXXX+XXX++++ &   @@ OO ooooooooo@",
"@@@@  ++++%%%%%%     +++++++++XXXXX+++++++    @@@@ OO oooooooooo",
"@@@@@  %%%+++++  @@@   +++++++XXXXX++++++    @@@@  O  oooooooooo",
"@@@@@@    %%%%  o@@@@@      +++XXX++       @@@@@@ OO ooooo@@oooo",
"@@@@@oooo      ooo@@@o ;;;;          ;;;;;   @@@@ OO oooo@@@@@oo",
"@@@oooooooo@@oooooooo  ;;;;;;; ooo ;;;;;;;;;  @@@ O  oo@@@@@@@@o",
"@@ooooooo@@@@@oooo   ========= @@@ ==========  @o   o@@@@@@@@@@@",
"@@oooooo@@@@@@@o   >>>>>>>>>>  @@@  >>>>>>>>>> oooooo@@@@@@@@@@@",
"@ooooo@@@@@@@@@o ===========  @@@@@   ========  oooo@@@@@@@@@@@@",
"@oooo@@@@@@@@@@  ;;;;;;;;    @@@@@@@@   ;;;;;;;  oo@@@@@@@@@@@@@",
"ooooo@@@@@@@@@@ ;;;;;     @@@@@@@@@@@@@      ;;; o@@@@@@@@@@@@@@",
"oooo@@@@@@@@@@@       @@@@@@@@@@@@@@@@@@@ooo     o@@@@@@@@@@@@@@",
"oooo@@@@@@@@@@@@@@ooooo@@@@@@@@@@@@@@@@@@ooo@oooo@@@@@@@@@@@@@@@"
};
