/* XPM */
static char *_b8673ba3221486092c74be1efcd32c7TUQRqtE0K9fCFqxP[] = {
/* columns rows colors chars-per-pixel */
"64 64 2 1 ",
"  c #241F1F",
". c #412121",
/* pixels */
"....   ............   ......................   .................",
"....   ............   ......................   .................",
"....   ............   ......................   .................",
"....   ............   ......................   .................",
"....   ............   ......................   .................",
"....   ............   ......................   .................",
"                                                                ",
"                                                                ",
"                                                                ",
"............   ....................   .................   ......",
"............   ....................   .................   ......",
"............   ....................   .................   ......",
"............   ....................   .................   ......",
"............   ....................   .................   ......",
"............   ....................   .................   ......",
"                                                                ",
"                                                                ",
"                                                                ",
"........................   ..........................   ........",
"........................   ..........................   ........",
"........................   ..........................   ........",
"........................   ..........................   ........",
"........................   ..........................   ........",
"........................   ..........................   ........",
"                                                                ",
"                                                                ",
"                                                                ",
"..............   .....................   .......................",
"..............   .....................   .......................",
"..............   .....................   .......................",
"..............   .....................   .......................",
"..............   .....................   .......................",
"..............   .....................   .......................",
"                                                                ",
"                                                                ",
"                                                                ",
"....   ...................   ...........................   .....",
"....   ...................   ...........................   .....",
"....   ...................   ...........................   .....",
"....   ...................   ...........................   .....",
"....   ...................   ...........................   .....",
"....   ...................   ...........................   .....",
"                                                                ",
"                                                                ",
"                                                                ",
".......   .............................   ......................",
".......   .............................   ......................",
".......   .............................   ......................",
".......   .............................   ......................",
".......   .............................   ......................",
".......   .............................   ......................",
"                                                                ",
"                                                                ",
"                                                                ",
"......................   ...........................   .........",
"......................   ...........................   .........",
"......................   ...........................   .........",
"......................   ...........................   .........",
"......................   ...........................   .........",
"......................   ...........................   .........",
"                                                                ",
"                                                                ",
"                                                                ",
"..........   ..............................   .................."
};
